# xmcd
#
# Track frame offsets:
#	150
#	10572
#	22220
#	33413
#	44584
#	59732
#	84668
#	101151
#	112854
#	125057
#	134629
#	147379
#	159571
#	170258
#	184726
#	197515
#	207426
#	219796
#	230322
#	240549
#	250990
#	265435
#	279150
#	291538
#	302363
#	315807
#	328917
#	343004
#	356449
#	369722
#	378300
#	390757
#
# Disc length: 5365 seconds
#
# Revision: 0
# Processed by: cddbd v1.5.2PL0 Copyright (c) Steve Scherf et al.
# Submitted via: audiograbber 1.83.01
#
DISCID=e014f320
DTITLE=Various Artist - Great Country - Great Artists
DYEAR=1981
DGENRE=Country
TTITLE0=Jim Reeves - He´ll Have To Go
TTITLE1=Skeeter Davis - The End Of The World
TTITLE2=Hank Locklin - Send Me The Pillow You Dream On
TTITLE3=Don Gibson - Oh Lonesome Me
TTITLE4=Georg Hamilton Iv - Canadian Pacific
TTITLE5=Ray Stevens - Shriners Convention
TTITLE6=Tom T. Hall - Mr. Bojangles
TTITLE7=Eddy Arnold - Make The World Go Away
TTITLE8=Hank Snow - I´m Movin´on
TTITLE9=Sons Of The Pioneers - Cool Water
TTITLE10=The Browns - The Three Bells
TTITLE11=Bobby Bare - 500 Miles From Home
TTITLE12=Floyd Cramer - Last Date
TTITLE13=Lorne Green - Ringo
TTITLE14=Slim Whitman - Birmingham Jail
TTITLE15=Waylon Jennings - Ruby Don´t Take Your Love To Town
TTITLE16=Dave and Suger - Queen Of The Dollar
TTITLE17=Porter Waggoner - Green Green Grass Of Home
TTITLE18=Connie Smith - Once A Day
TTITLE19=Ronnie Milsap - Pure Love
TTITLE20=Willie Nelson - Sweet Memories
TTITLE21=Jim Ed Brown - Helen Cornelius - You Don´t Bring Me Flowers
TTITLE22=Dottie West - Would You Hold It Against Me
TTITLE23=Jerry Reed - Guitar Man
TTITLE24=John Hartford - Gentle On My Mind
TTITLE25=Michael Nesmith - I Fall To Pieces
TTITLE26=Chet Atkins - Yesterday
TTITLE27=Micky Newbury - Funny Familiar Forgotten Feelings
TTITLE28=Pee Wee King - Tenessee Waltz
TTITLE29=Danny Davis and Nashville Brass - Wabash Connonball
TTITLE30=Norma Jean - Let´s Go All The Way
TTITLE31=Billy Monroe and The Blue Grass Boys - Orange Blossom Special
EXTD=
EXTT0=
EXTT1=
EXTT2=
EXTT3=
EXTT4=
EXTT5=
EXTT6=
EXTT7=
EXTT8=
EXTT9=
EXTT10=
EXTT11=
EXTT12=
EXTT13=
EXTT14=
EXTT15=
EXTT16=
EXTT17=
EXTT18=
EXTT19=
EXTT20=
EXTT21=
EXTT22=
EXTT23=
EXTT24=
EXTT25=
EXTT26=
EXTT27=
EXTT28=
EXTT29=
EXTT30=
EXTT31=
PLAYORDER=
